<?xml version="1.0" encoding="UTF-8" standalone="no"?>
<!-- Created with Inkscape (http://www.inkscape.org/) -->

<svg
   xmlns:dc="http://purl.org/dc/elements/1.1/"
   xmlns:cc="http://creativecommons.org/ns#"
   xmlns:rdf="http://www.w3.org/1999/02/22-rdf-syntax-ns#"
   xmlns:svg="http://www.w3.org/2000/svg"
   xmlns="http://www.w3.org/2000/svg"
   xmlns:sodipodi="http://sodipodi.sourceforge.net/DTD/sodipodi-0.dtd"
   xmlns:inkscape="http://www.inkscape.org/namespaces/inkscape"
   sodipodi:docname="Recall-precision.svg"
   inkscape:version="0.48.3.1 r9886"
   sodipodi:version="0.32"
   id="svg2"
   height="180.00000px"
   width="180.00000px"
   inkscape:output_extension="org.inkscape.output.svg.inkscape"
   sodipodi:modified="true"
   version="1.1">
  <defs
     id="defs3">
    <marker
       inkscape:stockid="TriangleInL"
       orient="auto"
       refY="0.0"
       refX="0.0"
       id="TriangleInL"
       style="overflow:visible">
      <path
         id="path8389"
         d="M 5.77,0.0 L -2.88,5.0 L -2.88,-5.0 L 5.77,0.0 z "
         style="fill-rule:evenodd;stroke:#000000;stroke-width:1.0pt;marker-start:none"
         transform="scale(-0.8)" />
    </marker>
    <marker
       inkscape:stockid="TriangleOutM"
       orient="auto"
       refY="0.0"
       refX="0.0"
       id="TriangleOutM"
       style="overflow:visible">
      <path
         id="path8377"
         d="M 5.77,0.0 L -2.88,5.0 L -2.88,-5.0 L 5.77,0.0 z "
         style="fill-rule:evenodd;stroke:#000000;stroke-width:1.0pt;marker-start:none"
         transform="scale(0.4)" />
    </marker>
    <marker
       inkscape:stockid="TriangleOutS"
       orient="auto"
       refY="0.0"
       refX="0.0"
       id="TriangleOutS"
       style="overflow:visible">
      <path
         id="path8374"
         d="M 5.77,0.0 L -2.88,5.0 L -2.88,-5.0 L 5.77,0.0 z "
         style="fill-rule:evenodd;stroke:#000000;stroke-width:1.0pt;marker-start:none"
         transform="scale(0.2)" />
    </marker>
    <marker
       inkscape:stockid="TriangleOutL"
       orient="auto"
       refY="0.0"
       refX="0.0"
       id="TriangleOutL"
       style="overflow:visible">
      <path
         id="path8380"
         d="M 5.77,0.0 L -2.88,5.0 L -2.88,-5.0 L 5.77,0.0 z "
         style="fill-rule:evenodd;stroke:#000000;stroke-width:1.0pt;marker-start:none"
         transform="scale(0.8)" />
    </marker>
    <marker
       inkscape:stockid="TriangleInM"
       orient="auto"
       refY="0.0"
       refX="0.0"
       id="TriangleInM"
       style="overflow:visible">
      <path
         id="path8386"
         d="M 5.77,0.0 L -2.88,5.0 L -2.88,-5.0 L 5.77,0.0 z "
         style="fill-rule:evenodd;stroke:#000000;stroke-width:1.0pt;marker-start:none"
         transform="scale(-0.4)" />
    </marker>
    <clipPath
       clipPathUnits="userSpaceOnUse"
       id="clipPath5257">
      <path
         sodipodi:nodetypes="ccccc"
         id="path5259"
         d="M 189.63755,30.105121 L 131.63093,30.093493 L 92.674346,160.62738 L 189.63755,160.63114 L 189.63755,30.105121 z "
         style="fill:#ff0000;fill-opacity:1;fill-rule:evenodd;stroke:#000000;stroke-width:0.7895472px;stroke-linecap:butt;stroke-linejoin:miter;stroke-opacity:1" />
    </clipPath>
    <filter
       inkscape:collect="always"
       id="filter4093">
      <feGaussianBlur
         inkscape:collect="always"
         stdDeviation="0.80606524"
         id="feGaussianBlur4095" />
    </filter>
    <filter
       inkscape:collect="always"
       id="filter4135">
      <feGaussianBlur
         inkscape:collect="always"
         stdDeviation="0.60244039"
         id="feGaussianBlur4137" />
    </filter>
    <clipPath
       clipPathUnits="userSpaceOnUse"
       id="clipPath5257-8">
      <path
         inkscape:connector-curvature="0"
         sodipodi:nodetypes="ccccc"
         id="path5259-7"
         d="m 189.63755,30.105121 -58.00662,-0.01163 -38.956584,130.533889 96.963204,0.004 0,-130.526021 z"
         style="fill:#ff0000;fill-opacity:1;fill-rule:evenodd;stroke:#000000;stroke-width:0.7895472px;stroke-linecap:butt;stroke-linejoin:miter;stroke-opacity:1" />
    </clipPath>
    <clipPath
       clipPathUnits="userSpaceOnUse"
       id="clipPath5257-8-1">
      <path
         inkscape:connector-curvature="0"
         sodipodi:nodetypes="ccccc"
         id="path5259-7-2"
         d="m 189.63755,30.105121 -58.00662,-0.01163 -38.956584,130.533889 96.963204,0.004 0,-130.526021 z"
         style="fill:#ff0000;fill-opacity:1;fill-rule:evenodd;stroke:#000000;stroke-width:0.7895472px;stroke-linecap:butt;stroke-linejoin:miter;stroke-opacity:1" />
    </clipPath>
    <clipPath
       clipPathUnits="userSpaceOnUse"
       id="clipPath5257-3">
      <path
         inkscape:connector-curvature="0"
         sodipodi:nodetypes="ccccc"
         id="path5259-8"
         d="m 189.63755,30.105121 -58.00662,-0.01163 -38.956584,130.533889 96.963204,0.004 0,-130.526021 z"
         style="fill:#ff0000;fill-opacity:1;fill-rule:evenodd;stroke:#000000;stroke-width:0.7895472px;stroke-linecap:butt;stroke-linejoin:miter;stroke-opacity:1" />
    </clipPath>
    <clipPath
       clipPathUnits="userSpaceOnUse"
       id="clipPath5257-4">
      <path
         inkscape:connector-curvature="0"
         sodipodi:nodetypes="ccccc"
         id="path5259-72"
         d="m 189.63755,30.105121 -58.00662,-0.01163 -38.956584,130.533889 96.963204,0.004 0,-130.526021 z"
         style="fill:#ff0000;fill-opacity:1;fill-rule:evenodd;stroke:#000000;stroke-width:0.7895472px;stroke-linecap:butt;stroke-linejoin:miter;stroke-opacity:1" />
    </clipPath>
  </defs>
  <sodipodi:namedview
     inkscape:window-y="24"
     inkscape:window-x="0"
     inkscape:window-height="744"
     inkscape:window-width="1024"
     inkscape:current-layer="layer1"
     inkscape:document-units="px"
     inkscape:cy="89.228464"
     inkscape:cx="126.92164"
     inkscape:zoom="2.9168488"
     inkscape:pageshadow="2"
     inkscape:pageopacity="0.0"
     borderopacity="1.0"
     bordercolor="#666666"
     pagecolor="#ffffff"
     id="base"
     showguides="true"
     inkscape:guide-bbox="true"
     borderlayer="true"
     inkscape:object-points="false"
     inkscape:object-nodes="false"
     objecttolerance="0.4"
     inkscape:object-bbox="true"
     inkscape:grid-points="false"
     inkscape:grid-bbox="false"
     inkscape:guide-points="false"
     guidetolerance="25.8"
     showgrid="false"
     inkscape:window-maximized="1"
     inkscape:snap-global="true"
     inkscape:snap-object-midpoints="false"
     inkscape:object-paths="true">
    <sodipodi:guide
       orientation="horizontal"
       position="0"
       id="guide2235" />
    <sodipodi:guide
       orientation="vertical"
       position="0"
       id="guide4263" />
    <sodipodi:guide
       orientation="vertical"
       position="180"
       id="guide4265" />
    <sodipodi:guide
       orientation="horizontal"
       position="180"
       id="guide4271" />
  </sodipodi:namedview>
  <metadata
     id="metadata4">
    <rdf:RDF>
      <cc:Work
         rdf:about="">
        <dc:format>image/svg+xml</dc:format>
        <dc:type
           rdf:resource="http://purl.org/dc/dcmitype/StillImage" />
      </cc:Work>
    </rdf:RDF>
  </metadata>
  <g
     id="layer1"
     inkscape:groupmode="layer"
     inkscape:label="Layer 1">
    <path
       style="fill:#ff6666;fill-opacity:1;fill-rule:evenodd;stroke:#000000;stroke-width:1px;stroke-linecap:butt;stroke-linejoin:miter;stroke-opacity:1"
       d="M 0,0.0090841641 L 112.54159,-0.0075920745 L 67.206307,180.00123 L 0,179.9956 L 0,0.0090841641 z "
       id="path4277"
       sodipodi:nodetypes="ccccc" />
    <path
       style="fill:#66ff66;fill-rule:evenodd;stroke:#000000;stroke-width:1px;stroke-linecap:butt;stroke-linejoin:miter;stroke-opacity:1;fill-opacity:1"
       d="M 180,0 L 112.52452,-0.016034639 L 67.208769,179.99482 L 180,180 L 180,0 z "
       id="path4273"
       sodipodi:nodetypes="ccccc" />
    <g
       id="g4107"
       transform="translate(3.1110603,-157.35517)">
      <path
         inkscape:connector-curvature="0"
         id="path4277-7"
         d="m 75.937019,204.78864 c -33.03628,0 -59.8125,19.13292 -59.8125,42.75 0,23.57192 26.67586,42.70821 59.625,42.78125 l 20.875,-82.90625 c -6.44828,-1.69964 -13.41366,-2.625 -20.6875,-2.625 z"
         style="fill:#66ff66;fill-opacity:1;fill-rule:evenodd;stroke:none" />
      <path
         inkscape:connector-curvature="0"
         id="path2237-1"
         d="m 96.624519,207.41364 -20.875,82.90625 c 0.0631,1.4e-4 0.12432,0 0.1875,0 33.036281,0 59.843751,-19.16417 59.843751,-42.78125 0,-18.42481 -16.30281,-34.11078 -39.156251,-40.125 z"
         style="fill:#ff6666;fill-opacity:1;fill-rule:evenodd;stroke:none" />
      <path
         transform="matrix(1.1632374,0,0,1.3790354,-43.825993,115.85365)"
         d="m 154.52821,95.24205 c 0,17.1258 -23.02298,31.009 -51.42327,31.009 -28.400284,0 -51.423265,-13.8832 -51.423265,-31.009 0,-17.1258 23.022981,-31.009004 51.423265,-31.009004 28.40029,0 51.42327,13.883204 51.42327,31.009004 z"
         sodipodi:ry="31.009005"
         sodipodi:rx="51.423267"
         sodipodi:cy="95.24205"
         sodipodi:cx="103.10494"
         id="path2237-5"
         style="fill:none;stroke:#000000;stroke-width:1.57909441;stroke-linecap:butt;stroke-linejoin:miter;stroke-miterlimit:4;stroke-opacity:1;stroke-dasharray:none"
         sodipodi:type="arc" />
    </g>
    <path
       transform="matrix(0.343245,0,0,0.373883,-28.561712,76.141449)"
       d="M 141.41413 178.6248 A 12.121212 11.111111 0 1 1  117.17171,178.6248 A 12.121212 11.111111 0 1 1  141.41413 178.6248 z"
       sodipodi:ry="11.111111"
       sodipodi:rx="12.121212"
       sodipodi:cy="178.6248"
       sodipodi:cx="129.29292"
       id="path1291"
       style="color:#000000;fill:#000000;fill-opacity:1;fill-rule:evenodd;stroke:none;stroke-width:1;stroke-linecap:round;stroke-linejoin:miter;marker:none;marker-start:none;marker-mid:none;marker-end:none;stroke-miterlimit:4;stroke-dashoffset:0;stroke-opacity:1;visibility:visible;display:inline;overflow:visible"
       sodipodi:type="arc" />
    <path
       transform="matrix(0.343245,0,0,0.373883,-8.1282328,70.631716)"
       d="M 141.41413 178.6248 A 12.121212 11.111111 0 1 1  117.17171,178.6248 A 12.121212 11.111111 0 1 1  141.41413 178.6248 z"
       sodipodi:ry="11.111111"
       sodipodi:rx="12.121212"
       sodipodi:cy="178.6248"
       sodipodi:cx="129.29292"
       id="use2812"
       style="color:#000000;fill:#000000;fill-opacity:1;fill-rule:evenodd;stroke:none;stroke-width:1;stroke-linecap:round;stroke-linejoin:miter;marker:none;marker-start:none;marker-mid:none;marker-end:none;stroke-miterlimit:4;stroke-dashoffset:0;stroke-opacity:1;visibility:visible;display:inline;overflow:visible"
       sodipodi:type="arc" />
    <path
       transform="matrix(0.343245,0,0,0.373883,-0.171873,105.06097)"
       d="M 141.41413 178.6248 A 12.121212 11.111111 0 1 1  117.17171,178.6248 A 12.121212 11.111111 0 1 1  141.41413 178.6248 z"
       sodipodi:ry="11.111111"
       sodipodi:rx="12.121212"
       sodipodi:cy="178.6248"
       sodipodi:cx="129.29292"
       id="use2814"
       style="color:#000000;fill:#000000;fill-opacity:1;fill-rule:evenodd;stroke:none;stroke-width:1;stroke-linecap:round;stroke-linejoin:miter;marker:none;marker-start:none;marker-mid:none;marker-end:none;stroke-miterlimit:4;stroke-dashoffset:0;stroke-opacity:1;visibility:visible;display:inline;overflow:visible"
       sodipodi:type="arc" />
    <path
       transform="matrix(0.343245,0,0,0.373883,-21.326258,101.10057)"
       d="M 141.41413 178.6248 A 12.121212 11.111111 0 1 1  117.17171,178.6248 A 12.121212 11.111111 0 1 1  141.41413 178.6248 z"
       sodipodi:ry="11.111111"
       sodipodi:rx="12.121212"
       sodipodi:cy="178.6248"
       sodipodi:cx="129.29292"
       id="use2818"
       style="color:#000000;fill:#000000;fill-opacity:1;fill-rule:evenodd;stroke:none;stroke-width:1;stroke-linecap:round;stroke-linejoin:miter;marker:none;marker-start:none;marker-mid:none;marker-end:none;stroke-miterlimit:4;stroke-dashoffset:0;stroke-opacity:1;visibility:visible;display:inline;overflow:visible"
       sodipodi:type="arc" />
    <path
       transform="matrix(0.343245,0,0,0.373883,13.308789,17.787828)"
       d="M 141.41413 178.6248 A 12.121212 11.111111 0 1 1  117.17171,178.6248 A 12.121212 11.111111 0 1 1  141.41413 178.6248 z"
       sodipodi:ry="11.111111"
       sodipodi:rx="12.121212"
       sodipodi:cy="178.6248"
       sodipodi:cx="129.29292"
       id="use2820"
       style="color:#000000;fill:#000000;fill-opacity:1;fill-rule:evenodd;stroke:none;stroke-width:1;stroke-linecap:round;stroke-linejoin:miter;marker:none;marker-start:none;marker-mid:none;marker-end:none;stroke-miterlimit:4;stroke-dashoffset:0;stroke-opacity:1;visibility:visible;display:inline;overflow:visible"
       sodipodi:type="arc" />
    <path
       transform="matrix(0.343245,0,0,0.373883,9.6627503,34.588661)"
       d="m 141.41413,178.6248 a 12.121212,11.111111 0 1 1 -24.24242,0 12.121212,11.111111 0 1 1 24.24242,0 z"
       sodipodi:ry="11.111111"
       sodipodi:rx="12.121212"
       sodipodi:cy="178.6248"
       sodipodi:cx="129.29292"
       id="use2822"
       style="color:#000000;fill:#000000;fill-opacity:1;fill-rule:evenodd;stroke:none;stroke-width:1;marker:none;visibility:visible;display:inline;overflow:visible"
       sodipodi:type="arc" />
    <path
       transform="matrix(0.343245,0,0,0.373883,0.4055972,48.267812)"
       d="M 141.41413 178.6248 A 12.121212 11.111111 0 1 1  117.17171,178.6248 A 12.121212 11.111111 0 1 1  141.41413 178.6248 z"
       sodipodi:ry="11.111111"
       sodipodi:rx="12.121212"
       sodipodi:cy="178.6248"
       sodipodi:cx="129.29292"
       id="use2824"
       style="color:#000000;fill:#000000;fill-opacity:1;fill-rule:evenodd;stroke:none;stroke-width:1;stroke-linecap:round;stroke-linejoin:miter;marker:none;marker-start:none;marker-mid:none;marker-end:none;stroke-miterlimit:4;stroke-dashoffset:0;stroke-opacity:1;visibility:visible;display:inline;overflow:visible"
       sodipodi:type="arc" />
    <path
       transform="matrix(0.343245,0,0,0.373883,33.928538,16.800782)"
       d="M 141.41413 178.6248 A 12.121212 11.111111 0 1 1  117.17171,178.6248 A 12.121212 11.111111 0 1 1  141.41413 178.6248 z"
       sodipodi:ry="11.111111"
       sodipodi:rx="12.121212"
       sodipodi:cy="178.6248"
       sodipodi:cx="129.29292"
       id="use2826"
       style="color:#000000;fill:#000000;fill-opacity:1;fill-rule:evenodd;stroke:none;stroke-width:1;stroke-linecap:round;stroke-linejoin:miter;marker:none;marker-start:none;marker-mid:none;marker-end:none;stroke-miterlimit:4;stroke-dashoffset:0;stroke-opacity:1;visibility:visible;display:inline;overflow:visible"
       sodipodi:type="arc" />
    <path
       transform="matrix(0.343245,0,0,0.373883,26.891299,38.505297)"
       d="m 141.41413,178.6248 a 12.121212,11.111111 0 1 1 -24.24242,0 12.121212,11.111111 0 1 1 24.24242,0 z"
       sodipodi:ry="11.111111"
       sodipodi:rx="12.121212"
       sodipodi:cy="178.6248"
       sodipodi:cx="129.29292"
       id="use2828"
       style="color:#000000;fill:#000000;fill-opacity:1;fill-rule:evenodd;stroke:none;stroke-width:1;marker:none;visibility:visible;display:inline;overflow:visible"
       sodipodi:type="arc" />
    <path
       transform="matrix(0.343245,0,0,0.373883,52.427911,103.61738)"
       d="m 141.41413,178.6248 a 12.121212,11.111111 0 1 1 -24.24242,0 12.121212,11.111111 0 1 1 24.24242,0 z"
       sodipodi:ry="11.111111"
       sodipodi:rx="12.121212"
       sodipodi:cy="178.6248"
       sodipodi:cx="129.29292"
       id="use2830"
       style="color:#000000;fill:none;stroke:#000000;stroke-width:2.79145122;stroke-linecap:round;stroke-linejoin:miter;stroke-miterlimit:4;stroke-opacity:1;stroke-dasharray:none;stroke-dashoffset:0;marker:none;visibility:visible;display:inline;overflow:visible"
       sodipodi:type="arc" />
    <path
       transform="matrix(0.343245,0,0,0.373883,17.418906,76.738815)"
       d="M 141.41413 178.6248 A 12.121212 11.111111 0 1 1  117.17171,178.6248 A 12.121212 11.111111 0 1 1  141.41413 178.6248 z"
       sodipodi:ry="11.111111"
       sodipodi:rx="12.121212"
       sodipodi:cy="178.6248"
       sodipodi:cx="129.29292"
       id="use2832"
       style="color:#000000;fill:#000000;fill-opacity:1;fill-rule:evenodd;stroke:none;stroke-width:1;stroke-linecap:round;stroke-linejoin:miter;marker:none;marker-start:none;marker-mid:none;marker-end:none;stroke-miterlimit:4;stroke-dashoffset:0;stroke-opacity:1;visibility:visible;display:inline;overflow:visible"
       sodipodi:type="arc" />
    <path
       transform="matrix(0.343245,0,0,0.373883,49.696605,78.3876)"
       d="M 141.41413 178.6248 A 12.121212 11.111111 0 1 1  117.17171,178.6248 A 12.121212 11.111111 0 1 1  141.41413 178.6248 z"
       sodipodi:ry="11.111111"
       sodipodi:rx="12.121212"
       sodipodi:cy="178.6248"
       sodipodi:cx="129.29292"
       id="use2834"
       style="color:#000000;fill:none;fill-opacity:1;fill-rule:evenodd;stroke:#000000;stroke-width:2.79145114;stroke-linecap:round;stroke-linejoin:miter;marker:none;marker-start:none;marker-mid:none;marker-end:none;stroke-miterlimit:4;stroke-dashoffset:0;stroke-opacity:1;visibility:visible;display:inline;overflow:visible;stroke-dasharray:none"
       sodipodi:type="arc" />
    <path
       transform="matrix(0.343245,0,0,0.373883,70.057325,0.8368897)"
       d="M 141.41413 178.6248 A 12.121212 11.111111 0 1 1  117.17171,178.6248 A 12.121212 11.111111 0 1 1  141.41413 178.6248 z"
       sodipodi:ry="11.111111"
       sodipodi:rx="12.121212"
       sodipodi:cy="178.6248"
       sodipodi:cx="129.29292"
       id="use2850"
       style="color:#000000;fill:none;fill-opacity:1;fill-rule:evenodd;stroke:#000000;stroke-width:2.79145114;stroke-linecap:round;stroke-linejoin:miter;marker:none;marker-start:none;marker-mid:none;marker-end:none;stroke-miterlimit:4;stroke-dashoffset:0;stroke-opacity:1;visibility:visible;display:inline;overflow:visible;stroke-dasharray:none"
       sodipodi:type="arc" />
    <path
       transform="matrix(0.343245,0,0,0.373883,75.901288,-44.718776)"
       d="M 141.41413 178.6248 A 12.121212 11.111111 0 1 1  117.17171,178.6248 A 12.121212 11.111111 0 1 1  141.41413 178.6248 z"
       sodipodi:ry="11.111111"
       sodipodi:rx="12.121212"
       sodipodi:cy="178.6248"
       sodipodi:cx="129.29292"
       id="use2868"
       style="color:#000000;fill:none;fill-opacity:1;fill-rule:evenodd;stroke:#000000;stroke-width:2.79145113999999994;stroke-linecap:round;stroke-linejoin:miter;marker:none;marker-start:none;marker-mid:none;marker-end:none;stroke-miterlimit:4;stroke-dashoffset:0;stroke-opacity:1;visibility:visible;display:inline;overflow:visible;stroke-dasharray:none"
       sodipodi:type="arc" />
    <path
       transform="matrix(0.343245,0,0,0.373883,37.99405,-48.222517)"
       d="M 141.41413 178.6248 A 12.121212 11.111111 0 1 1  117.17171,178.6248 A 12.121212 11.111111 0 1 1  141.41413 178.6248 z"
       sodipodi:ry="11.111111"
       sodipodi:rx="12.121212"
       sodipodi:cy="178.6248"
       sodipodi:cx="129.29292"
       id="use2870"
       style="color:#000000;fill:#000000;fill-opacity:1;fill-rule:evenodd;stroke:none;stroke-width:1;stroke-linecap:round;stroke-linejoin:miter;marker:none;marker-start:none;marker-mid:none;marker-end:none;stroke-miterlimit:4;stroke-dashoffset:0;stroke-opacity:1;visibility:visible;display:inline;overflow:visible"
       sodipodi:type="arc" />
    <path
       transform="matrix(0.343245,0,0,0.373883,81.319491,-26.843576)"
       d="M 141.41413 178.6248 A 12.121212 11.111111 0 1 1  117.17171,178.6248 A 12.121212 11.111111 0 1 1  141.41413 178.6248 z"
       sodipodi:ry="11.111111"
       sodipodi:rx="12.121212"
       sodipodi:cy="178.6248"
       sodipodi:cx="129.29292"
       id="use2872"
       style="color:#000000;fill:none;fill-opacity:1;fill-rule:evenodd;stroke:#000000;stroke-width:2.79145114;stroke-linecap:round;stroke-linejoin:miter;marker:none;marker-start:none;marker-mid:none;marker-end:none;stroke-miterlimit:4;stroke-dashoffset:0;stroke-opacity:1;visibility:visible;display:inline;overflow:visible;stroke-dasharray:none"
       sodipodi:type="arc" />
    <path
       transform="matrix(0.343245,0,0,0.373883,49.184304,-27.412432)"
       d="M 141.41413 178.6248 A 12.121212 11.111111 0 1 1  117.17171,178.6248 A 12.121212 11.111111 0 1 1  141.41413 178.6248 z"
       sodipodi:ry="11.111111"
       sodipodi:rx="12.121212"
       sodipodi:cy="178.6248"
       sodipodi:cx="129.29292"
       id="use2874"
       style="color:#000000;fill:#000000;fill-opacity:1;fill-rule:evenodd;stroke:none;stroke-width:1;stroke-linecap:round;stroke-linejoin:miter;marker:none;marker-start:none;marker-mid:none;marker-end:none;stroke-miterlimit:4;stroke-dashoffset:0;stroke-opacity:1;visibility:visible;display:inline;overflow:visible"
       sodipodi:type="arc" />
    <path
       transform="matrix(0.343245,0,0,0.373883,32.635303,-11.26777)"
       d="M 141.41413 178.6248 A 12.121212 11.111111 0 1 1  117.17171,178.6248 A 12.121212 11.111111 0 1 1  141.41413 178.6248 z"
       sodipodi:ry="11.111111"
       sodipodi:rx="12.121212"
       sodipodi:cy="178.6248"
       sodipodi:cx="129.29292"
       id="use2876"
       style="color:#000000;fill:#000000;fill-opacity:1;fill-rule:evenodd;stroke:none;stroke-width:1;stroke-linecap:round;stroke-linejoin:miter;marker:none;marker-start:none;marker-mid:none;marker-end:none;stroke-miterlimit:4;stroke-dashoffset:0;stroke-opacity:1;visibility:visible;display:inline;overflow:visible"
       sodipodi:type="arc" />
    <path
       transform="matrix(0.343245,0,0,0.373883,58.690504,23.873301)"
       d="M 141.41413 178.6248 A 12.121212 11.111111 0 1 1  117.17171,178.6248 A 12.121212 11.111111 0 1 1  141.41413 178.6248 z"
       sodipodi:ry="11.111111"
       sodipodi:rx="12.121212"
       sodipodi:cy="178.6248"
       sodipodi:cx="129.29292"
       id="path2912"
       style="color:#000000;fill:none;fill-opacity:1;fill-rule:evenodd;stroke:#000000;stroke-width:2.79145114;stroke-linecap:round;stroke-linejoin:miter;marker:none;marker-start:none;marker-mid:none;marker-end:none;stroke-miterlimit:4;stroke-dashoffset:0;stroke-opacity:1;visibility:visible;display:inline;overflow:visible;stroke-dasharray:none"
       sodipodi:type="arc" />
    <path
       transform="matrix(0.343245,0.000000,0.000000,0.373883,84.01267,94.34855)"
       d="M 141.41413 178.62480 A 12.121212 11.111111 0 1 1  117.17171,178.62480 A 12.121212 11.111111 0 1 1  141.41413 178.62480 z"
       sodipodi:ry="11.111111"
       sodipodi:rx="12.121212"
       sodipodi:cy="178.62480"
       sodipodi:cx="129.29292"
       id="path2914"
       style="color:#000000;fill:none;fill-opacity:1;fill-rule:evenodd;stroke:#000000;stroke-width:2.79145114;stroke-linecap:round;stroke-linejoin:miter;stroke-miterlimit:4;stroke-dashoffset:0;stroke-opacity:1;marker:none;marker-start:none;marker-mid:none;marker-end:none;visibility:visible;display:inline;overflow:visible;stroke-dasharray:none"
       sodipodi:type="arc" />
    <path
       transform="matrix(0.343245,0,0,0.373883,78.061199,28.596609)"
       d="M 141.41413 178.6248 A 12.121212 11.111111 0 1 1  117.17171,178.6248 A 12.121212 11.111111 0 1 1  141.41413 178.6248 z"
       sodipodi:ry="11.111111"
       sodipodi:rx="12.121212"
       sodipodi:cy="178.6248"
       sodipodi:cx="129.29292"
       id="path2916"
       style="color:#000000;fill:none;fill-opacity:1;fill-rule:evenodd;stroke:#000000;stroke-width:2.79145114;stroke-linecap:round;stroke-linejoin:miter;marker:none;marker-start:none;marker-mid:none;marker-end:none;stroke-miterlimit:4;stroke-dashoffset:0;stroke-opacity:1;visibility:visible;display:inline;overflow:visible;stroke-dasharray:none"
       sodipodi:type="arc" />
    <path
       transform="matrix(0.343245,0.000000,0.000000,0.373883,110.9092,81.48025)"
       d="M 141.41413 178.62480 A 12.121212 11.111111 0 1 1  117.17171,178.62480 A 12.121212 11.111111 0 1 1  141.41413 178.62480 z"
       sodipodi:ry="11.111111"
       sodipodi:rx="12.121212"
       sodipodi:cy="178.62480"
       sodipodi:cx="129.29292"
       id="path2920"
       style="color:#000000;fill:none;fill-opacity:1;fill-rule:evenodd;stroke:#000000;stroke-width:2.79145114;stroke-linecap:round;stroke-linejoin:miter;stroke-miterlimit:4;stroke-dashoffset:0;stroke-opacity:1;marker:none;marker-start:none;marker-mid:none;marker-end:none;visibility:visible;display:inline;overflow:visible;stroke-dasharray:none"
       sodipodi:type="arc" />
    <path
       transform="matrix(0.343245,0,0,0.373883,84.148802,71.452133)"
       d="M 141.41413 178.6248 A 12.121212 11.111111 0 1 1  117.17171,178.6248 A 12.121212 11.111111 0 1 1  141.41413 178.6248 z"
       sodipodi:ry="11.111111"
       sodipodi:rx="12.121212"
       sodipodi:cy="178.6248"
       sodipodi:cx="129.29292"
       id="path2922"
       style="color:#000000;fill:none;fill-opacity:1;fill-rule:evenodd;stroke:#000000;stroke-width:2.79145114;stroke-linecap:round;stroke-linejoin:miter;marker:none;marker-start:none;marker-mid:none;marker-end:none;stroke-miterlimit:4;stroke-dashoffset:0;stroke-opacity:1;visibility:visible;display:inline;overflow:visible;stroke-dasharray:none"
       sodipodi:type="arc" />
    <path
       transform="matrix(0.343245,0,0,0.373883,117.4101,47.431798)"
       d="M 141.41413 178.6248 A 12.121212 11.111111 0 1 1  117.17171,178.6248 A 12.121212 11.111111 0 1 1  141.41413 178.6248 z"
       sodipodi:ry="11.111111"
       sodipodi:rx="12.121212"
       sodipodi:cy="178.6248"
       sodipodi:cx="129.29292"
       id="path2924"
       style="color:#000000;fill:none;fill-opacity:1;fill-rule:evenodd;stroke:#000000;stroke-width:2.79145114;stroke-linecap:round;stroke-linejoin:miter;marker:none;marker-start:none;marker-mid:none;marker-end:none;stroke-miterlimit:4;stroke-dashoffset:0;stroke-opacity:1;visibility:visible;display:inline;overflow:visible;stroke-dasharray:none"
       sodipodi:type="arc" />
    <path
       transform="matrix(0.343245,0,0,0.373883,65.884585,46.390596)"
       d="M 141.41413 178.6248 A 12.121212 11.111111 0 1 1  117.17171,178.6248 A 12.121212 11.111111 0 1 1  141.41413 178.6248 z"
       sodipodi:ry="11.111111"
       sodipodi:rx="12.121212"
       sodipodi:cy="178.6248"
       sodipodi:cx="129.29292"
       id="path2926"
       style="color:#000000;fill:none;fill-opacity:1;fill-rule:evenodd;stroke:#000000;stroke-width:2.79145114;stroke-linecap:round;stroke-linejoin:miter;marker:none;marker-start:none;marker-mid:none;marker-end:none;stroke-miterlimit:4;stroke-dashoffset:0;stroke-opacity:1;visibility:visible;display:inline;overflow:visible;stroke-dasharray:none"
       sodipodi:type="arc" />
    <path
       transform="matrix(0.343245,0.000000,0.000000,0.373883,101.3834,35.04235)"
       d="M 141.41413 178.62480 A 12.121212 11.111111 0 1 1  117.17171,178.62480 A 12.121212 11.111111 0 1 1  141.41413 178.62480 z"
       sodipodi:ry="11.111111"
       sodipodi:rx="12.121212"
       sodipodi:cy="178.62480"
       sodipodi:cx="129.29292"
       id="path2930"
       style="color:#000000;fill:none;fill-opacity:1;fill-rule:evenodd;stroke:#000000;stroke-width:2.79145114;stroke-linecap:round;stroke-linejoin:miter;stroke-miterlimit:4;stroke-dashoffset:0;stroke-opacity:1;marker:none;marker-start:none;marker-mid:none;marker-end:none;visibility:visible;display:inline;overflow:visible;stroke-dasharray:none"
       sodipodi:type="arc" />
    <path
       transform="matrix(0.343245,0,0,0.373883,119.16169,2.5301956)"
       d="M 141.41413 178.6248 A 12.121212 11.111111 0 1 1  117.17171,178.6248 A 12.121212 11.111111 0 1 1  141.41413 178.6248 z"
       sodipodi:ry="11.111111"
       sodipodi:rx="12.121212"
       sodipodi:cy="178.6248"
       sodipodi:cx="129.29292"
       id="path2932"
       style="color:#000000;fill:none;fill-opacity:1;fill-rule:evenodd;stroke:#000000;stroke-width:2.79145114;stroke-linecap:round;stroke-linejoin:miter;marker:none;marker-start:none;marker-mid:none;marker-end:none;stroke-miterlimit:4;stroke-dashoffset:0;stroke-opacity:1;visibility:visible;display:inline;overflow:visible;stroke-dasharray:none"
       sodipodi:type="arc" />
    <path
       transform="matrix(0.343245,0,0,0.373883,106.67112,-15.914403)"
       d="M 141.41413 178.6248 A 12.121212 11.111111 0 1 1  117.17171,178.6248 A 12.121212 11.111111 0 1 1  141.41413 178.6248 z"
       sodipodi:ry="11.111111"
       sodipodi:rx="12.121212"
       sodipodi:cy="178.6248"
       sodipodi:cx="129.29292"
       id="path2934"
       style="color:#000000;fill:none;fill-opacity:1;fill-rule:evenodd;stroke:#000000;stroke-width:2.79145114;stroke-linecap:round;stroke-linejoin:miter;marker:none;marker-start:none;marker-mid:none;marker-end:none;stroke-miterlimit:4;stroke-dashoffset:0;stroke-opacity:1;visibility:visible;display:inline;overflow:visible;stroke-dasharray:none"
       sodipodi:type="arc" />
    <path
       transform="matrix(0.343245,0,0,0.373883,112.31801,-44.372632)"
       d="M 141.41413 178.6248 A 12.121212 11.111111 0 1 1  117.17171,178.6248 A 12.121212 11.111111 0 1 1  141.41413 178.6248 z"
       sodipodi:ry="11.111111"
       sodipodi:rx="12.121212"
       sodipodi:cy="178.6248"
       sodipodi:cx="129.29292"
       id="path2936"
       style="color:#000000;fill:none;fill-opacity:1;fill-rule:evenodd;stroke:#000000;stroke-width:2.79145114;stroke-linecap:round;stroke-linejoin:miter;marker:none;marker-start:none;marker-mid:none;marker-end:none;stroke-miterlimit:4;stroke-dashoffset:0;stroke-opacity:1;visibility:visible;display:inline;overflow:visible;stroke-dasharray:none"
       sodipodi:type="arc" />
    <path
       transform="matrix(0.343245,0,0,0.373883,-27.226699,46.857723)"
       d="m 141.41413,178.6248 a 12.121212,11.111111 0 1 1 -24.24242,0 12.121212,11.111111 0 1 1 24.24242,0 z"
       sodipodi:ry="11.111111"
       sodipodi:rx="12.121212"
       sodipodi:cy="178.6248"
       sodipodi:cx="129.29292"
       id="path2938"
       style="color:#000000;fill:#000000;fill-opacity:1;fill-rule:evenodd;stroke:none;stroke-width:1;marker:none;visibility:visible;display:inline;overflow:visible"
       sodipodi:type="arc" />
    <path
       transform="matrix(0.343245,0.000000,0.000000,0.373883,-3.400800,8.186450)"
       d="M 141.41413 178.62480 A 12.121212 11.111111 0 1 1  117.17171,178.62480 A 12.121212 11.111111 0 1 1  141.41413 178.62480 z"
       sodipodi:ry="11.111111"
       sodipodi:rx="12.121212"
       sodipodi:cy="178.62480"
       sodipodi:cx="129.29292"
       id="path2940"
       style="color:#000000;fill:#000000;fill-opacity:1.0000000;fill-rule:evenodd;stroke:none;stroke-width:1.0000000;stroke-linecap:round;stroke-linejoin:miter;stroke-miterlimit:4.0000000;stroke-dashoffset:0.00000000;stroke-opacity:1.0000000;marker:none;marker-start:none;marker-mid:none;marker-end:none;visibility:visible;display:inline;overflow:visible"
       sodipodi:type="arc" />
    <path
       transform="matrix(0.343245,0,0,0.373883,-16.239665,-18.887284)"
       d="M 141.41413 178.6248 A 12.121212 11.111111 0 1 1  117.17171,178.6248 A 12.121212 11.111111 0 1 1  141.41413 178.6248 z"
       sodipodi:ry="11.111111"
       sodipodi:rx="12.121212"
       sodipodi:cy="178.6248"
       sodipodi:cx="129.29292"
       id="path2942"
       style="color:#000000;fill:#000000;fill-opacity:1;fill-rule:evenodd;stroke:none;stroke-width:1;stroke-linecap:round;stroke-linejoin:miter;marker:none;marker-start:none;marker-mid:none;marker-end:none;stroke-miterlimit:4;stroke-dashoffset:0;stroke-opacity:1;visibility:visible;display:inline;overflow:visible"
       sodipodi:type="arc" />
    <path
       transform="matrix(0.343245,0.000000,0.000000,0.373883,-15.72834,23.85235)"
       d="M 141.41413 178.62480 A 12.121212 11.111111 0 1 1  117.17171,178.62480 A 12.121212 11.111111 0 1 1  141.41413 178.62480 z"
       sodipodi:ry="11.111111"
       sodipodi:rx="12.121212"
       sodipodi:cy="178.62480"
       sodipodi:cx="129.29292"
       id="path2944"
       style="color:#000000;fill:#000000;fill-opacity:1.0000000;fill-rule:evenodd;stroke:none;stroke-width:1.0000000;stroke-linecap:round;stroke-linejoin:miter;stroke-miterlimit:4.0000000;stroke-dashoffset:0.00000000;stroke-opacity:1.0000000;marker:none;marker-start:none;marker-mid:none;marker-end:none;visibility:visible;display:inline;overflow:visible"
       sodipodi:type="arc" />
    <path
       transform="matrix(0.343245,0,0,0.373883,16.809133,-44.701783)"
       d="M 141.41413 178.6248 A 12.121212 11.111111 0 1 1  117.17171,178.6248 A 12.121212 11.111111 0 1 1  141.41413 178.6248 z"
       sodipodi:ry="11.111111"
       sodipodi:rx="12.121212"
       sodipodi:cy="178.6248"
       sodipodi:cx="129.29292"
       id="path2946"
       style="color:#000000;fill:#000000;fill-opacity:1;fill-rule:evenodd;stroke:none;stroke-width:1;stroke-linecap:round;stroke-linejoin:miter;marker:none;marker-start:none;marker-mid:none;marker-end:none;stroke-miterlimit:4;stroke-dashoffset:0;stroke-opacity:1;visibility:visible;display:inline;overflow:visible"
       sodipodi:type="arc" />
    <path
       transform="matrix(0.343245,0,0,0.373883,-20.52149,-45.53757)"
       d="M 141.41413 178.6248 A 12.121212 11.111111 0 1 1  117.17171,178.6248 A 12.121212 11.111111 0 1 1  141.41413 178.6248 z"
       sodipodi:ry="11.111111"
       sodipodi:rx="12.121212"
       sodipodi:cy="178.6248"
       sodipodi:cx="129.29292"
       id="path2948"
       style="color:#000000;fill:#000000;fill-opacity:1;fill-rule:evenodd;stroke:none;stroke-width:1;stroke-linecap:round;stroke-linejoin:miter;marker:none;marker-start:none;marker-mid:none;marker-end:none;stroke-miterlimit:4;stroke-dashoffset:0;stroke-opacity:1;visibility:visible;display:inline;overflow:visible"
       sodipodi:type="arc" />
    <path
       transform="matrix(0.343245,0,0,0.373883,-31.40937,3.94855)"
       d="m 141.41413,178.6248 a 12.121212,11.111111 0 1 1 -24.24242,0 12.121212,11.111111 0 1 1 24.24242,0 z"
       sodipodi:ry="11.111111"
       sodipodi:rx="12.121212"
       sodipodi:cy="178.6248"
       sodipodi:cx="129.29292"
       id="path2950"
       style="color:#000000;fill:#000000;fill-opacity:1;fill-rule:evenodd;stroke:none;stroke-width:1;marker:none;visibility:visible;display:inline;overflow:visible"
       sodipodi:type="arc" />
    <g
       id="g3898"
       style="stroke-width:2;stroke-miterlimit:4;stroke-dasharray:none;stroke:#ffffff;stroke-opacity:1">
      <path
         inkscape:connector-curvature="0"
         style="fill:none;stroke:#000000;stroke-width:2;stroke-opacity:1;marker-start:none;stroke-miterlimit:4;stroke-dasharray:none"
         d="m 60.402838,61.840492 -0.81937,7.950788 -6.480704,-4.678341"
         id="path4395"
         sodipodi:nodetypes="ccc" />
      <path
         inkscape:connector-curvature="0"
         style="fill:none;stroke:#000000;stroke-width:2;stroke-opacity:1;marker-start:none;stroke-miterlimit:4;stroke-dasharray:none"
         d="m 42.382005,41.1974 0.81937,-7.950788 6.480704,4.678341"
         id="path4397"
         sodipodi:nodetypes="ccc" />
      <path
         sodipodi:nodetypes="cc"
         inkscape:connector-curvature="0"
         id="path3878"
         d="M 43.878287,34.304696 C 59.878104,69.940652 59.150839,69.213387 59.150839,69.213387"
         style="fill:none;stroke:#000000;stroke-width:2;stroke-linecap:butt;stroke-linejoin:miter;stroke-opacity:1;stroke-miterlimit:4;stroke-dasharray:none" />
    </g>
    <g
       id="g3903"
       style="stroke:#000000;stroke-opacity:1;stroke-width:2;stroke-miterlimit:4;stroke-dasharray:none">
      <g
         id="g4139"
         style="fill:none;fill-opacity:1;stroke:#000000;stroke-opacity:1;stroke-width:2;stroke-miterlimit:4;stroke-dasharray:none">
        <path
           sodipodi:nodetypes="ccc"
           id="path4145"
           d="m 94.110861,116.40072 6.982009,3.89075 -6.856277,4.10827"
           style="fill:none;stroke:#000000;stroke-width:2;stroke-opacity:1;marker-start:none;stroke-miterlimit:4;stroke-dasharray:none"
           inkscape:connector-curvature="0" />
        <path
           sodipodi:nodetypes="ccc"
           id="path4147"
           d="m 67.823747,124.81491 -6.982011,-3.89075 6.856279,-4.10827"
           style="fill:none;stroke:#000000;stroke-width:2;stroke-opacity:1;marker-start:none;stroke-miterlimit:4;stroke-dasharray:none"
           inkscape:connector-curvature="0" />
      </g>
      <path
         sodipodi:nodetypes="cc"
         inkscape:connector-curvature="0"
         id="path3878-7"
         d="m 61.69374,120.8486 38.060171,-0.48484"
         style="fill:none;stroke:#000000;stroke-width:2;stroke-linecap:butt;stroke-linejoin:miter;stroke-opacity:1;stroke-miterlimit:4;stroke-dasharray:none" />
    </g>
    <text
       xml:space="preserve"
       style="font-size:12px;font-style:normal;font-weight:normal;line-height:125%;letter-spacing:0px;word-spacing:0px;fill:#000000;fill-opacity:1;stroke:none;font-family:Sans"
       x="51.768196"
       y="46.294064"
       id="text4112"
       sodipodi:linespacing="125%"><tspan
         sodipodi:role="line"
         id="tspan4114"
         x="51.768196"
         y="46.294064"
         style="font-size:16px;font-weight:bold;fill:#000000;fill-opacity:1;-inkscape-font-specification:Sans Bold">R</tspan></text>
    <text
       xml:space="preserve"
       style="font-size:12px;font-style:normal;font-weight:normal;line-height:125%;letter-spacing:0px;word-spacing:0px;fill:#000000;fill-opacity:1;stroke:none;font-family:Sans"
       x="80.264107"
       y="117.17822"
       id="text4112-7"
       sodipodi:linespacing="125%"><tspan
         sodipodi:role="line"
         id="tspan4114-8"
         x="80.264107"
         y="117.17822"
         style="font-size:16px;font-weight:bold;fill:#000000;fill-opacity:1;-inkscape-font-specification:Sans Bold">P</tspan></text>
  </g>
</svg>
